{
  "accessors": [
    {
      "bufferView": 1,
      "componentType": 5126,
      "count": 64,
      "max": [
        2.669832706451416,
        2.7225348949432373,
        1.0678633451461792
      ],
      "min": [
        -2.6698803901672363,
        -0.2955699861049652,
        -1.842363715171814
      ],
      "type": "VEC3"
    },
    {
      "bufferView": 1,
      "byteOffset": 768,
      "componentType": 5126,
      "count": 64,
      "max": [
        0.9995572566986084,
        0.08899319916963577,
        0.9990866184234619
      ],
      "min": [
        -0.9995572566986084,
        0.02862693928182125,
        -0.9992138147354126
      ],
      "type": "VEC3"
    },
    {
      "bufferView": 0,
      "componentType": 5125,
      "count": 96,
      "type": "SCALAR"
    },
    {
      "bufferView": 1,
      "byteOffset": 1536,
      "componentType": 5126,
      "count": 64,
      "max": [
        2.642260789871216,
        3.876387119293213,
        1.0154588222503662
      ],
      "min": [
        -2.642308473587036,
        1.3176109790802002,
        -1.7786909341812134
      ],
      "type": "VEC3"
    },
    {
      "bufferView": 1,
      "byteOffset": 2304,
      "componentType": 5126,
      "count": 64,
      "max": [
        0.9995572566986084,
        0.08899319916963577,
        0.9990866184234619
      ],
      "min": [
        -0.9995572566986084,
        0.02862693928182125,
        -0.9992138147354126
      ],
      "type": "VEC3"
    },
    {
      "bufferView": 0,
      "byteOffset": 384,
      "componentType": 5125,
      "count": 96,
      "type": "SCALAR"
    },
    {
      "bufferView": 1,
      "byteOffset": 3072,
      "componentType": 5126,
      "count": 48,
      "max": [
        2.627239227294922,
        8.089790344238281,
        0.9206951856613159
      ],
      "min": [
        -2.627286911010742,
        1.7820014953613281,
        -1.7603613138198853
      ],
      "type": "VEC3"
    },
    {
      "bufferView": 1,
      "byteOffset": 3648,
      "componentType": 5126,
      "count": 48,
      "max": [
        0.9995572566986084,
        0.08899319916963577,
        0.9990866184234619
      ],
      "min": [
        -0.9995572566986084,
        0.02862693928182125,
        -0.9992138147354126
      ],
      "type": "VEC3"
    },
    {
      "bufferView": 0,
      "byteOffset": 768,
      "componentType": 5125,
      "count": 48,
      "type": "SCALAR"
    },
    {
      "bufferView": 1,
      "byteOffset": 4224,
      "componentType": 5126,
      "count": 101,
      "max": [
        2.8102827072143555,
        2.6915574073791504,
        2.080986261367798
      ],
      "min": [
        -2.810330390930176,
        -9.707112312316895,
        -2.544893503189087
      ],
      "type": "VEC3"
    },
    {
      "bufferView": 1,
      "byteOffset": 5436,
      "componentType": 5126,
      "count": 101,
      "max": [
        1.0,
        1.0,
        0.9997365474700928
      ],
      "min": [
        -1.0,
        -0.4278818368911743,
        -1.0
      ],
      "type": "VEC3"
    },
    {
      "bufferView": 0,
      "byteOffset": 960,
      "componentType": 5125,
      "count": 201,
      "type": "SCALAR"
    },
    {
      "bufferView": 1,
      "byteOffset": 6648,
      "componentType": 5126,
      "count": 92,
      "max": [
        4.358089447021484,
        3.0407323837280273,
        1.6950352191925049
      ],
      "min": [
        -4.358137130737305,
        -4.090612411499023,
        -2.0640194416046143
      ],
      "type": "VEC3"
    },
    {
      "bufferView": 1,
      "byteOffset": 7752,
      "componentType": 5126,
      "count": 92,
      "max": [
        0.9939764142036438,
        0.5056043863296509,
        0.9966936707496643
      ],
      "min": [
        -0.9943856000900269,
        -0.1075187548995018,
        -0.9975031018257141
      ],
      "type": "VEC3"
    },
    {
      "bufferView": 0,
      "byteOffset": 1764,
      "componentType": 5125,
      "count": 150,
      "type": "SCALAR"
    },
    {
      "bufferView": 1,
      "byteOffset": 8856,
      "componentType": 5126,
      "count": 271,
      "max": [
        4.608619213104248,
        3.8489789962768555,
        2.7447922229766846
      ],
      "min": [
        -4.608666896820068,
        -9.707112312316895,
        -2.620396852493286
      ],
      "type": "VEC3"
    },
    {
      "bufferView": 1,
      "byteOffset": 12108,
      "componentType": 5126,
      "count": 271,
      "max": [
        1.0,
        1.0,
        0.9999865293502808
      ],
      "min": [
        -1.0,
        -1.0,
        -0.9999864101409912
      ],
      "type": "VEC3"
    },
    {
      "bufferView": 0,
      "byteOffset": 2364,
      "componentType": 5125,
      "count": 579,
      "type": "SCALAR"
    },
    {
      "bufferView": 1,
      "byteOffset": 15360,
      "componentType": 5126,
      "count": 20,
      "max": [
        1.9798375368118286,
        -0.8158350586891174,
        1.3415436744689941
      ],
      "min": [
        -1.9798847436904907,
        -6.796055316925049,
        0.02047760784626007
      ],
      "type": "VEC3"
    },
    {
      "bufferView": 1,
      "byteOffset": 15600,
      "componentType": 5126,
      "count": 20,
      "max": [
        0.6929451823234558,
        -0.11487199366092682,
        0.9933803677558899
      ],
      "min": [
        -0.6929759383201599,
        -0.3650413751602173,
        0.7046983242034912
      ],
      "type": "VEC3"
    },
    {
      "bufferView": 0,
      "byteOffset": 4680,
      "componentType": 5125,
      "count": 42,
      "type": "SCALAR"
    }
  ],
  "asset": {
    "extras": {
      "author": "Lite (https://sketchfab.com/lite)",
      "license": "CC-BY-4.0 (http://creativecommons.org/licenses/by/4.0/)",
      "source": "https://sketchfab.com/3d-models/low-poly-racing-ship-8eb8fa2a19b341329b355c7458432373",
      "title": "Low-Poly Racing Ship"
    },
    "generator": "Sketchfab-15.32.0",
    "version": "2.0"
  },
  "bufferViews": [
    {
      "buffer": 0,
      "byteLength": 4848,
      "name": "floatBufferViews",
      "target": 34963
    },
    {
      "buffer": 0,
      "byteLength": 15840,
      "byteOffset": 4848,
      "byteStride": 12,
      "name": "floatBufferViews",
      "target": 34962
    }
  ],
  "buffers": [
    {
      "byteLength": 20688,
      "uri": "scene.bin"
    }
  ],
  "extensionsUsed": [
    "KHR_materials_emissive_strength",
    "KHR_materials_specular"
  ],
  "materials": [
    {
      "doubleSided": true,
      "emissiveFactor": [
        0.9406652057935939,
        0.0107693078308533,
        0.004496992675040139
      ],
      "extensions": {
        "KHR_materials_emissive_strength": {
          "emissiveStrength": 10.0
        },
        "KHR_materials_specular": {
          "specularColorFactor": [
            1.0,
            1.0,
            1.0
          ],
          "specularFactor": 0.0
        }
      },
      "name": "Material.003",
      "pbrMetallicRoughness": {
        "baseColorFactor": [
          0.0,
          0.0,
          0.0,
          1.0
        ],
        "metallicFactor": 0.0,
        "roughnessFactor": 0.6
      }
    },
    {
      "doubleSided": true,
      "emissiveFactor": [
        0.715855893155135,
        0.02356612306905199,
        0.0026594861248471565
      ],
      "extensions": {
        "KHR_materials_emissive_strength": {
          "emissiveStrength": 10.0
        }
      },
      "name": "Material.004",
      "pbrMetallicRoughness": {
        "baseColorFactor": [
          0.0,
          0.0,
          0.0,
          1.0
        ],
        "metallicFactor": 0.0,
        "roughnessFactor": 0.6
      }
    },
    {
      "doubleSided": true,
      "emissiveFactor": [
        0.8103699510436352,
        0.03809598422533118,
        0.0045428184926791714
      ],
      "extensions": {
        "KHR_materials_emissive_strength": {
          "emissiveStrength": 10.0
        }
      },
      "name": "Material.005",
      "pbrMetallicRoughness": {
        "baseColorFactor": [
          0.0,
          0.0,
          0.0,
          1.0
        ],
        "metallicFactor": 0.0,
        "roughnessFactor": 0.6
      }
    },
    {
      "doubleSided": true,
      "name": "Material.002",
      "pbrMetallicRoughness": {
        "baseColorFactor": [
          0.11673372093150068,
          0.11673372093150068,
          0.11673372093150068,
          1.0
        ],
        "metallicFactor": 0.0,
        "roughnessFactor": 0.6
      }
    },
    {
      "doubleSided": true,
      "name": "Material.006",
      "pbrMetallicRoughness": {
        "baseColorFactor": [
          0.004220366466787754,
          0.004220366466787754,
          0.004220366466787754,
          1.0
        ],
        "metallicFactor": 0.0,
        "roughnessFactor": 0.6
      }
    },
    {
      "doubleSided": true,
      "name": "Material",
      "pbrMetallicRoughness": {
        "metallicFactor": 0.0,
        "roughnessFactor": 0.6
      }
    },
    {
      "doubleSided": true,
      "name": "Material.001",
      "pbrMetallicRoughness": {
        "baseColorFactor": [
          0.3107286435509098,
          0.402541239483642,
          0.699402405522393,
          1.0
        ],
        "metallicFactor": 0.0,
        "roughnessFactor": 0.6
      }
    }
  ],
  "meshes": [
    {
      "name": "Cube_Material.003_0",
      "primitives": [
        {
          "attributes": {
            "NORMAL": 1,
            "POSITION": 0
          },
          "indices": 2,
          "material": 0,
          "mode": 4
        }
      ]
    },
    {
      "name": "Cube_Material.004_0",
      "primitives": [
        {
          "attributes": {
            "NORMAL": 4,
            "POSITION": 3
          },
          "indices": 5,
          "material": 1,
          "mode": 4
        }
      ]
    },
    {
      "name": "Cube_Material.005_0",
      "primitives": [
        {
          "attributes": {
            "NORMAL": 7,
            "POSITION": 6
          },
          "indices": 8,
          "material": 2,
          "mode": 4
        }
      ]
    },
    {
      "name": "Cube_Material.002_0",
      "primitives": [
        {
          "attributes": {
            "NORMAL": 10,
            "POSITION": 9
          },
          "indices": 11,
          "material": 3,
          "mode": 4
        }
      ]
    },
    {
      "name": "Cube_Material.006_0",
      "primitives": [
        {
          "attributes": {
            "NORMAL": 13,
            "POSITION": 12
          },
          "indices": 14,
          "material": 4,
          "mode": 4
        }
      ]
    },
    {
      "name": "Cube_Material_0",
      "primitives": [
        {
          "attributes": {
            "NORMAL": 16,
            "POSITION": 15
          },
          "indices": 17,
          "material": 5,
          "mode": 4
        }
      ]
    },
    {
      "name": "Cube_Material.001_0",
      "primitives": [
        {
          "attributes": {
            "NORMAL": 19,
            "POSITION": 18
          },
          "indices": 20,
          "material": 6,
          "mode": 4
        }
      ]
    }
  ],
  "nodes": [
    {
      "children": [
        1
      ],
      "matrix": [
        0.925255537033081,
        -0.3250229656696319,
        -0.19560734927654275,
        0.0,
        -0.23377826809883118,
        -0.08246457576751687,
        -0.9687865376472473,
        0.0,
        0.298747181892395,
        0.9421038627624512,
        -0.152284115552902,
        0.0,
        0.0,
        0.0,
        0.0,
        1.0
      ],
      "name": "Sketchfab_model"
    },
    {
      "children": [
        2
      ],
      "matrix": [
        1.0,
        0.0,
        0.0,
        0.0,
        0.0,
        0.0,
        1.0,
        0.0,
        0.0,
        -1.0,
        0.0,
        0.0,
        0.0,
        0.0,
        0.0,
        1.0
      ],
      "name": "e31279eee2324316a04eda7a98a8f914.fbx"
    },
    {
      "children": [
        3,
        6,
        9,
        17
      ],
      "name": "RootNode"
    },
    {
      "children": [
        4
      ],
      "matrix": [
        -35.34330110867185,
        82.07272696046388,
        -44.887844189879445,
        0.0,
        -66.21581174150192,
        -55.844165144834875,
        -49.96893003468786,
        0.0,
        -66.0781103931468,
        12.062181920919436,
        74.0822994660516,
        0.0,
        -619.82177734375,
        625.4641723632813,
        -673.3556518554688,
        1.0
      ],
      "name": "Sun.001"
    },
    {
      "children": [
        5
      ],
      "matrix": [
        1.0,
        0.0,
        0.0,
        0.0,
        0.0,
        2.220446049250313e-16,
        1.0,
        0.0,
        0.0,
        -1.0,
        2.220446049250313e-16,
        0.0,
        0.0,
        0.0,
        0.0,
        1.0
      ],
      "name": "Object_4"
    },
    {
      "name": "Object_5"
    },
    {
      "children": [
        7
      ],
      "matrix": [
        66.50212889784314,
        63.11796451801117,
        -39.919787163231945,
        0.0,
        -0.5463029298578503,
        53.862414195524664,
        84.25284499729709,
        0.0,
        74.68044191864082,
        -55.81185261333674,
        36.16446740522652,
        0.0,
        133.5646209716797,
        1021.6578369140625,
        -1303.8797607421875,
        1.0
      ],
      "name": "Sun"
    },
    {
      "children": [
        8
      ],
      "matrix": [
        1.0,
        0.0,
        0.0,
        0.0,
        0.0,
        2.220446049250313e-16,
        1.0,
        0.0,
        0.0,
        -1.0,
        2.220446049250313e-16,
        0.0,
        0.0,
        0.0,
        0.0,
        1.0
      ],
      "name": "Object_7"
    },
    {
      "name": "Object_8"
    },
    {
      "children": [
        10,
        11,
        12,
        13,
        14,
        15,
        16
      ],
      "matrix": [
        100.0,
        0.0,
        0.0,
        0.0,
        0.0,
        -1.629206793918314e-05,
        -99.99999999999868,
        0.0,
        0.0,
        99.99999999999868,
        -1.629206793918314e-05,
        0.0,
        0.0,
        0.0,
        0.0,
        1.0
      ],
      "name": "Cube"
    },
    {
      "mesh": 0,
      "name": "Cube_Material.003_0"
    },
    {
      "mesh": 1,
      "name": "Cube_Material.004_0"
    },
    {
      "mesh": 2,
      "name": "Cube_Material.005_0"
    },
    {
      "mesh": 3,
      "name": "Cube_Material.002_0"
    },
    {
      "mesh": 4,
      "name": "Cube_Material.006_0"
    },
    {
      "mesh": 5,
      "name": "Cube_Material_0"
    },
    {
      "mesh": 6,
      "name": "Cube_Material.001_0"
    },
    {
      "children": [
        18
      ],
      "matrix": [
        -59.13329758621222,
        -72.0828555858926,
        -36.15681190541861,
        0.0,
        -61.49789733089793,
        69.31134585057372,
        -37.60249308409563,
        0.0,
        52.16571975488144,
        8.492846060581538e-05,
        -85.31551841516267,
        0.0,
        549.42138671875,
        700.0874633789063,
        443.63165283203125,
        1.0
      ],
      "name": "Camera"
    },
    {
      "name": "Object_18"
    }
  ],
  "scene": 0,
  "scenes": [
    {
      "name": "Sketchfab_Scene",
      "nodes": [
        0
      ]
    }
  ]
}
